<?xml version="1.0" encoding="UTF-8"?><svg id="Calque_1" xmlns="http://www.w3.org/2000/svg" viewBox="0 0 283.46 283.46"><defs><style>.cls-1{fill:#1d1d1b;}</style></defs><path class="cls-1" d="m246.48,23.97l1.03,59.78h-8.07c-11.45-35.85-31.67-53.77-60.64-53.77-16.03,0-28.49,4.44-37.36,13.31-8.88,8.88-13.31,18.07-13.31,27.57,0,8.82,3.69,16.32,11.08,22.5,7.39,6.18,20.87,10.97,40.46,14.34,19.58,3.38,34.5,7.5,44.75,12.37,10.25,4.87,18.9,12.97,25.94,24.31,7.04,11.34,10.57,24.34,10.57,39,0,22.56-7.36,41.34-22.08,56.35-14.72,15-32.96,22.5-54.72,22.5-17.75,0-35.45-6.59-53.08-19.76l-16.15,14.43h-6.01v-64.42h7.39c6.76,20.27,16.21,35.5,28.35,45.7s25.42,15.29,39.86,15.29,27.46-4.72,39.43-14.17,17.95-21.39,17.95-35.82c0-12.14-4.15-22.36-12.45-30.66-8.3-8.3-21.76-14.03-40.37-17.18-18.61-3.15-32.9-6.81-42.86-10.99-9.96-4.18-18.5-11.45-25.6-21.82-7.1-10.36-10.65-21.85-10.65-34.44,0-17.41,6.18-32.96,18.55-46.64,12.37-13.69,29.15-20.53,50.33-20.53,17.75,0,34.3,5.61,49.65,16.84,4.24-4.01,7.9-8.7,10.99-14.09h7.04Z"/><path class="cls-1" d="m114.43,112.85l-32.5,68.66h64.85l8.2,18.31h-81.72l-29.55,62.42h-21.15L112.18,72.54l2.25,40.31Z"/></svg>